# xmcd
#
# Track frame offsets:
#	150
#	13261
#	28427
#	45729
#	59089
#	71503
#	83053
#	93541
#	107499
#	122411
#	132454
#	143175
#	157967
#	169487
#	182841
#	193797
#	204371
#	218480
#
# Disc length: 3119 seconds
#
# Revision: 0
# Processed by: cddbd v1.5.2PL0 Copyright (c) Steve Scherf et al.
# Submitted via: dBpowerAMP V4.0
#
DISCID=0a0c2d12
DTITLE=Kenny Rogers and The First Edition - 18 Greatest
DYEAR=2006
DGENRE=Country
TTITLE0=Ruby, Don't Take Your Love To Town
TTITLE1=Just Dropped In (To See What Condition My Condition Was In)
TTITLE2=Something's Burning
TTITLE3=But You Know I Love You
TTITLE4=Reuben James
TTITLE5=Me and Bobby McGee
TTITLE6=Ticket To Nowhere
TTITLE7=Molly
TTITLE8=Heed The Call
TTITLE9=Where Does Rosie Go
TTITLE10=She Even Woke Me Up To Say Goodbye
TTITLE11=All God's Lonely Children
TTITLE12=Poem For My Little Lady
TTITLE13=Sleep Comes Easy
TTITLE14=Always Leavin', Always Gone
TTITLE15=Trying Just As Hard
TTITLE16=Sunshine
TTITLE17=My Washington Woman
EXTD=Vintage Kenny Rogers
EXTT0=
EXTT1=
EXTT2=
EXTT3=
EXTT4=
EXTT5=
EXTT6=
EXTT7=
EXTT8=
EXTT9=
EXTT10=
EXTT11=
EXTT12=
EXTT13=
EXTT14=
EXTT15=
EXTT16=
EXTT17=
PLAYORDER=
